<?xml version="1.0" standalone="no"?>
<!DOCTYPE svg PUBLIC "-//W3C//DTD SVG 20010904//EN"
 "http://www.w3.org/TR/2001/REC-SVG-20010904/DTD/svg10.dtd">
<svg version="1.0" xmlns="http://www.w3.org/2000/svg"
 width="1024.000000pt" height="1024.000000pt" viewBox="0 0 1024.000000 1024.000000"
 preserveAspectRatio="xMidYMid meet">

<g transform="translate(0.000000,1024.000000) scale(0.100000,-0.100000)"
fill="#000000" stroke="none">
<path d="M4885 9789 c-848 -77 -1552 -321 -2202 -761 -472 -320 -869 -732
-1196 -1240 -31 -49 -60 -88 -64 -88 -4 0 -149 141 -320 312 l-313 313 2
-1458 3 -1459 655 1 c360 0 1012 4 1448 8 l794 6 -571 571 c-425 425 -571 577
-571 594 0 36 139 313 227 453 112 178 218 313 368 467 464 480 1008 735 1750
822 150 18 536 24 690 11 189 -16 361 -44 516 -85 232 -62 491 -175 679 -297
333 -215 639 -552 843 -925 142 -260 230 -504 315 -869 14 -58 52 -280 52
-301 0 -12 -270 -14 -1845 -14 l-1845 0 0 -675 0 -675 2278 0 c1506 0 2298 3
2338 10 290 50 516 237 597 495 41 131 46 319 18 715 -97 1375 -661 2535
-1578 3249 -630 490 -1382 763 -2261 821 -177 12 -676 11 -807 -1z"/>
<path d="M780 4475 c0 -70 69 -457 116 -653 115 -478 335 -972 627 -1412 683
-1026 1804 -1728 3102 -1944 412 -69 940 -95 1285 -65 879 77 1811 391 2480
837 80 53 151 101 159 106 9 6 107 -85 357 -335 l344 -344 0 1459 0 1459 -567
-7 c-313 -3 -815 -8 -1118 -11 -302 -3 -696 -8 -874 -11 l-324 -6 554 -555
554 -554 -28 -24 c-38 -34 -190 -122 -323 -188 -490 -245 -1063 -387 -1557
-387 -493 1 -993 96 -1396 267 -529 225 -993 595 -1328 1058 -232 320 -422
777 -498 1190 -9 50 -18 100 -21 113 l-4 22 -770 0 c-666 0 -770 -2 -770 -15z"/>
</g>
</svg>
